# xmcd database file
#
# Track frame offsets:
# 150
# 16360
# 29557
# 47055
# 64292
# 76757
# 86915
# 101835
# 114075
# 127237
# 141915
# 154712
# 172907
# 188525
#
# Disc length: 2707 seconds
#
# Revision: 0
# Processed by: cddbd v1.4PL0 Copyright (c) Steve Scherf et al.
# Submitted via: CD-Runner 2003.06
#
DISCID=b70a910e
DTITLE=Various Instrumental - Memories of The Old West /Tribute to Roy Rogers
DYEAR=1999
DGENRE=Country
TTITLE0=Bury Me Out On The Lone Prairie
TTITLE1=The Yellow Rose Of Texas
TTITLE2=Tumbling Tumbleweeds
TTITLE3=Ghost Riders In The Sky
TTITLE4=I Ride An Old Paint (I'm Leaving Cheyenne)
TTITLE5=The Old Chisholm Trail
TTITLE6='Way Out There
TTITLE7=Whoopee Ti Yi Yo
TTITLE8=Red River Valley
TTITLE9=Don't Fence Me In
TTITLE10=Colorado Trail
TTITLE11=Cool Water
TTITLE12=Echoes From The Hills
TTITLE13=Happy Trails
EXTD=Robert Bowlin: Guitar\nAndre Reissi: Guitar\nBob Burns: Bass\nCraig Duncan: Fiddle\nMichael Zikovich: Accordion\nMichael Docchette: Harmonica\n
EXTT0=Missionary Lake in the Boundary Waters \nCanoe Area of Minnesota - with common \nloons, barred owls, American bittern and \nassorted songbirds\n
EXTT1=Yellowstone National Park - with Canada \ngeese and lodgepole pines creaking in \nthe wind.\n
EXTT2=
EXTT3=
EXTT4=
EXTT5=
EXTT6=
EXTT7=
EXTT8=
EXTT9=
EXTT10=
EXTT11=
EXTT12=
EXTT13=
PLAYORDER=
